<?xml version="1.0" standalone="no"?>
<!DOCTYPE svg PUBLIC "-//W3C//DTD SVG 1.1//EN" "http://www.w3.org/Graphics/SVG/1.1/DTD/svg11.dtd">
<svg xmlns="http://www.w3.org/2000/svg" width="2113" height="759" viewBox="0 0 2113 759" fill="none">
<path d="M308.726 194.478V334.185H130.277V194.478H48.0963V581.313H130.277V416.953H308.726V581.313H390.906V194.478H308.726ZM462.842 558.42L450.515 581.313H553.827L557.936 573.682L641.878 421.649L590.222 328.902L462.842 558.42ZM886.658 558.42L722.297 261.984L688.251 200.935L684.729 192.717H664.771L660.662 200.935L627.203 261.984L623.094 269.615L674.75 362.948L675.924 365.296L714.079 433.976L791.564 573.682L795.673 581.313H898.985L886.658 558.42ZM1181.54 426.932L1177.43 435.737C1158.65 474.479 1119.32 499.133 1076.47 499.133C1023.64 499.133 977.263 461.565 966.697 409.908C964.936 402.864 964.349 394.646 964.349 387.015C964.349 379.384 964.936 372.34 966.697 364.709C976.676 312.466 1023.05 274.898 1076.47 274.898C1121.67 274.898 1162.17 301.9 1179.78 342.99L1183.89 352.382H1269L1263.13 333.011C1251.98 293.095 1227.33 257.288 1194.45 232.046C1160.41 206.218 1119.32 192.717 1076.47 192.717C1029.51 192.717 983.72 209.74 948.5 240.851C913.28 271.376 890.387 313.64 883.93 359.426C882.756 368.818 882.169 377.623 882.169 387.015C882.169 396.407 882.756 406.386 883.93 415.778C890.387 461.565 913.867 503.242 948.5 533.766C984.307 564.877 1029.51 581.313 1076.47 581.313C1118.14 581.313 1158.06 568.399 1192.11 543.745C1224.98 519.091 1249.05 486.219 1261.37 447.477L1267.83 426.932H1181.54ZM1410.33 193.891H1328.15V367.644L1410.33 285.464V193.891ZM1672.72 555.485L1505.43 387.602L1672.72 220.306L1699.14 193.891H1582.91L1460.23 315.988V316.575L1328.15 448.651V581.313H1410.33V482.697L1447.32 445.716L1578.22 577.204L1582.91 581.313H1699.14L1672.72 555.485ZM1961.8 346.512H1850.27C1830.89 346.512 1815.05 330.663 1815.05 311.292C1815.05 291.921 1830.89 276.072 1850.27 276.072H1978.82C1991.73 280.181 2000.54 291.921 2000.54 306.009H2080.96C2080.96 295.443 2079.78 285.464 2076.85 276.072C2063.94 228.524 2020.5 193.891 1968.84 193.891H1850.27C1808 193.891 1768.67 216.197 1748.13 253.179C1738.15 270.789 1732.87 290.747 1732.87 311.292C1732.87 331.837 1738.15 351.795 1748.13 369.405C1752.82 377.623 1758.11 384.667 1763.98 391.124C1786.28 414.604 1817.39 428.693 1850.27 428.693H1961.8C1981.17 428.693 1996.43 444.542 1996.43 463.913C1996.43 483.284 1981.17 499.133 1961.8 499.133H1834.42C1822.09 495.024 1813.28 483.284 1813.28 469.196H1732.87C1732.87 479.762 1734.04 489.741 1736.39 499.133C1749.89 546.68 1793.33 581.313 1844.98 581.313H1961.8C2003.47 581.313 2042.8 559.007 2063.35 522.613C2073.91 504.416 2079.2 484.458 2079.2 463.913C2079.2 443.368 2073.91 423.41 2063.35 405.799C2042.8 369.405 2003.47 346.512 1961.8 346.512Z" fill="#E9E4C1"/>
<path d="M1567.75 723.64C1561.49 723.64 1557.92 718.929 1559.6 712.9C1561.24 707.058 1567.45 702.347 1573.71 702.347H1610.69C1621.65 702.347 1632.98 698.202 1642.47 690.853C1645.45 688.592 1648.15 685.954 1650.7 683.127C1655.61 677.474 1659.41 670.879 1661.25 664.284C1663.1 657.689 1662.99 651.094 1661.24 645.441C1657.52 633.57 1646.27 626.221 1631.99 626.221H1555.29L1547.64 653.544H1624.34C1630.6 653.544 1634.13 658.443 1632.49 664.284C1630.86 670.126 1624.65 674.836 1618.39 674.836H1581.4C1567.12 674.836 1551.76 682.185 1541.39 694.056C1536.49 699.709 1532.88 706.304 1531.04 712.9C1529.14 719.683 1529.11 726.09 1530.8 731.931C1534.52 743.802 1545.82 750.963 1560.11 750.963H1637L1644.65 723.64H1567.75ZM1789.89 645.63L1789.74 645.441C1789.71 644.876 1789.47 644.311 1789.24 643.745C1787.19 638.469 1783.71 634.135 1778.88 631.12C1774.78 628.294 1769.72 626.787 1764.21 626.221C1764.01 626.221 1763.81 626.221 1763.62 626.221C1762.69 626.033 1761.71 626.033 1760.74 626.033C1759.76 626.033 1758.78 626.033 1757.94 626.221H1730.16C1729.43 626.033 1728.45 626.033 1727.47 626.033C1726.49 626.033 1725.52 626.033 1724.48 626.221C1724.29 626.221 1724.09 626.221 1723.9 626.221C1718.07 626.787 1712.17 628.294 1706.48 631.12C1699.96 634.135 1694.06 638.469 1689.06 643.745C1688.51 644.311 1687.96 644.876 1687.61 645.441C1687.61 645.441 1687.61 645.441 1687.55 645.63C1682.45 651.283 1679.09 657.689 1677.25 664.284L1663.65 712.9C1661.8 719.495 1661.72 726.09 1663.46 731.743C1663.5 732.308 1663.78 732.685 1664.02 733.25C1665.78 738.149 1669.07 742.483 1673.31 745.498C1673.65 745.686 1673.99 745.875 1674.33 746.063C1679.3 749.267 1685.67 750.963 1692.52 750.963H1725.78C1726.76 750.963 1727.55 750.963 1728.52 750.963C1729.31 750.963 1730.14 750.774 1730.92 750.774H1731.12C1731.96 750.586 1732.74 750.586 1733.38 750.397H1733.57H1733.77C1734.21 750.209 1734.6 750.209 1735.05 750.02C1735.44 750.02 1735.88 749.832 1736.47 749.832C1737.36 749.455 1738.39 749.267 1739.28 748.89C1739.67 748.89 1740.11 748.701 1740.31 748.701C1741.84 748.136 1743.17 747.571 1744.5 747.006C1744.89 747.006 1745.14 746.817 1745.59 746.629C1746.03 746.44 1746.28 746.252 1746.72 746.063C1747.17 745.875 1747.61 745.686 1747.86 745.498C1748.3 745.31 1748.75 745.121 1749.19 744.933L1749.24 744.744C1749.69 744.556 1749.94 744.367 1750.38 744.179C1750.82 743.991 1751.07 743.802 1751.52 743.614L1751.57 743.425H1751.76C1752.01 743.237 1752.26 743.048 1752.51 742.86C1752.76 742.672 1753.2 742.483 1753.45 742.295C1754.64 741.541 1755.88 740.599 1757.07 739.845C1757.37 739.468 1757.82 739.28 1758.12 738.903C1760.35 737.207 1762.44 735.323 1764.2 733.25C1769.99 727.22 1774.15 720.06 1776.15 712.9L1789.75 664.284C1791.6 657.689 1791.63 651.283 1789.89 645.63ZM1761.19 664.284L1747.59 712.9C1745.95 718.741 1739.55 723.452 1733.48 723.452H1700.22C1694.15 723.452 1690.58 718.741 1692.21 712.9L1705.81 664.284C1707.29 659.008 1712.66 654.486 1718.35 653.732H1721.09H1721.48H1751.23H1751.62H1754.36C1759.62 654.486 1762.66 659.008 1761.19 664.284ZM1828.58 723.64C1822.31 723.64 1818.74 718.929 1820.43 712.9C1822.06 707.058 1828.27 702.347 1834.53 702.347H1871.51C1882.47 702.347 1893.81 698.202 1903.3 690.853C1906.28 688.592 1908.97 685.954 1911.52 683.127C1916.43 677.474 1920.23 670.879 1922.08 664.284C1923.92 657.689 1923.81 651.094 1922.07 645.441C1918.34 633.57 1907.1 626.221 1892.81 626.221H1816.11L1808.47 653.544H1885.17C1891.43 653.544 1894.95 658.443 1893.32 664.284C1891.68 670.126 1885.47 674.836 1879.21 674.836H1842.23C1827.95 674.836 1812.58 682.185 1802.22 694.056C1797.31 699.709 1793.71 706.304 1791.86 712.9C1789.96 719.683 1789.93 726.09 1791.62 731.931C1795.35 743.802 1806.65 750.963 1820.93 750.963H1897.83L1905.47 723.64H1828.58ZM1964.82 723.64C1958.55 723.64 1954.98 718.929 1956.67 712.9C1958.3 707.058 1964.51 702.347 1970.77 702.347H2007.75C2018.71 702.347 2030.05 698.202 2039.54 690.853C2042.52 688.592 2045.21 685.954 2047.76 683.127C2052.67 677.474 2056.47 670.879 2058.32 664.284C2060.16 657.689 2060.05 651.094 2058.31 645.441C2054.58 633.57 2043.34 626.221 2029.05 626.221H1952.35L1944.71 653.544H2021.41C2027.67 653.544 2031.19 658.443 2029.56 664.284C2027.92 670.126 2021.71 674.836 2015.45 674.836H1978.47C1964.19 674.836 1948.82 682.185 1938.46 694.056C1933.55 699.709 1929.95 706.304 1928.1 712.9C1926.2 719.683 1926.17 726.09 1927.86 731.931C1931.59 743.802 1942.89 750.963 1957.17 750.963H2034.07L2041.71 723.64H1964.82Z" fill="#E9E4C1"/>
<path d="M79.1893 148.305L101.436 68.7869H74.0426L51.7958 148.305H79.1893ZM43.1511 23.94L35.7707 50.3205H79.2089H106.602H152.193L159.574 23.94H43.1511ZM233.207 72.9324H196.03C189.573 72.9324 185.713 67.8447 187.453 61.6264C189.192 55.4082 195.899 50.3205 202.356 50.3205H245.207C249.143 51.6395 251.023 55.4082 249.758 59.9306H276.565C277.514 56.5388 278.018 53.3354 277.884 50.3205C277.849 35.0575 266.48 23.94 249.261 23.94H209.736C195.648 23.94 180.535 31.1004 170.366 42.9716C165.458 48.6246 161.904 55.0313 160.059 61.6264C158.214 68.2216 158.183 74.6283 159.928 80.2812C160.755 82.9193 161.883 85.1805 163.26 87.2532C168.587 94.7905 177.692 99.3129 188.649 99.3129H225.826C232.283 99.3129 235.947 104.401 234.208 110.619C232.468 116.837 225.957 121.925 219.5 121.925H177.04C173.3 120.606 171.419 116.837 172.685 112.315H145.878C144.929 115.707 144.424 118.91 144.364 121.925C144.594 137.188 155.963 148.305 173.182 148.305H212.12C226.012 148.305 241.125 141.145 251.242 129.462C256.398 123.621 259.952 117.214 261.797 110.619C263.642 104.024 263.673 97.617 261.733 91.9641C258.153 80.2812 247.099 72.9324 233.207 72.9324ZM306.462 23.94L305.091 28.8392L299.082 50.3205H414.526L421.906 23.94H306.462ZM313.928 95.1674H390.434L397.815 68.7869H321.309L293.968 68.5984L279.049 121.925L277.678 126.824L271.668 148.305H387.112L394.493 121.925H306.442L313.928 95.1674ZM516.024 98.7476L513.863 101.574C504.122 114.011 488.799 121.925 474.515 121.925C456.905 121.925 444.821 109.865 445.938 93.2831C445.984 91.0219 446.526 88.3838 447.211 85.9342C447.897 83.4846 448.725 81.2234 449.997 78.7738C458.016 62.0033 476.847 49.9436 494.653 49.9436C509.719 49.9436 520.795 58.6115 522.975 71.8018L523.501 74.8167H551.873L551.656 68.5984C551.523 55.785 546.521 44.2907 537.831 36.1881C528.801 27.897 516.317 23.5631 502.033 23.5631C486.38 23.5631 469.589 29.0276 455.055 39.0146C440.574 48.813 429.147 62.3802 422.883 77.0779C421.648 80.0928 420.661 82.9193 419.818 85.9342C418.974 88.9491 418.274 92.1525 417.822 95.1674C415.862 109.865 419.946 123.244 428.749 133.042C437.891 143.029 451.481 148.305 467.134 148.305C481.027 148.305 495.492 144.16 509.055 136.246C522.226 128.332 533.201 117.779 540.789 105.343L544.787 98.7476H516.024Z" fill="#E9E4C1"/>
<path d="M1176 380.29C1176 380.218 1175.99 380.148 1175.97 380.082L1175.97 380.069L1156.32 327.924L1156.31 327.906C1156.28 327.829 1156.23 327.756 1156.16 327.702L1112.96 292.965C1112.89 292.909 1112.81 292.87 1112.72 292.854L1112.7 292.852L1077.44 288.003C1077.37 287.996 1077.3 288.001 1077.23 288.019L1060.42 292.847H1059.94C1059.85 292.847 1059.76 292.874 1059.68 292.922V292.922L1059.25 293.182L1017.88 305.068C1017.87 305.072 1017.86 305.084 1017.85 305.087C1017.79 305.108 1017.74 305.138 1017.7 305.177C1017.68 305.193 1017.66 305.206 1017.64 305.225C1017.63 305.235 1017.62 305.238 1017.61 305.251L981.387 352.784C981.376 352.799 981.374 352.816 981.365 352.832C981.352 352.853 981.336 352.872 981.326 352.895C981.32 352.91 981.318 352.924 981.313 352.939C981.303 352.968 981.298 352.996 981.295 353.025C981.291 353.043 981.283 353.057 981.283 353.076L979 394.881C978.999 394.916 979 394.954 979.007 394.991L982.346 416.133C982.351 416.161 982.365 416.184 982.373 416.212C982.379 416.23 982.377 416.248 982.385 416.264L982.393 416.278L982.398 416.294L999.263 448.765C999.291 448.822 999.332 448.872 999.379 448.915L1019.16 466.592C1019.19 466.628 1019.23 466.659 1019.27 466.685L1042.14 482.269C1042.2 482.312 1042.27 482.339 1042.35 482.351L1078.24 487.991L1078.24 487.993L1078.25 487.994C1078.28 487.999 1078.3 488 1078.33 488C1078.36 488 1078.4 487.996 1078.43 487.989L1078.44 487.986L1078.45 487.985V487.985L1078.46 487.984L1078.46 487.982V487.982L1078.47 487.978L1137.11 470.655C1137.13 470.649 1137.14 470.627 1137.16 470.617C1137.22 470.593 1137.27 470.559 1137.31 470.515C1137.33 470.497 1137.36 470.492 1137.38 470.47L1173.05 422.91C1173.11 422.834 1173.13 422.747 1173.15 422.658C1173.15 422.648 1173.15 422.641 1173.16 422.63L1176 380.29ZM1172.15 422.181L1156.72 426.125L1174.76 383.303L1172.15 422.181ZM1109.54 416.114L1052.69 395.891L1095.57 364.678L1109.54 416.114ZM1095.57 362.994L1052.81 334.72L1108.41 318.643L1095.57 362.994ZM1094.96 363.837L1052.1 395.034V335.499L1094.96 363.837ZM1051.07 395.215L1002.43 371.083L1051.07 335.555V395.215ZM1061.6 453.07L1015.23 426.807L1051.24 397.016L1061.6 453.07ZM1052.26 396.847L1109.23 417.112L1062.67 453.141L1052.26 396.847ZM1109.86 417.943L1112.86 461.026L1063.6 453.735L1109.86 417.943ZM1110.52 415.753L1096.57 364.411L1144.01 369.203L1110.52 415.753ZM1144.67 370.059L1155.19 426.211L1111.19 416.598L1144.67 370.059ZM1156.03 425.101L1145.63 369.587L1174.79 380.555L1156.03 425.101ZM1144.74 367.571L1110.36 318.677L1155.2 328.506L1144.74 367.571ZM1143.87 368.141L1096.54 363.359L1109.36 319.06L1143.87 368.141ZM1052.26 333.794L1060.32 294.136L1107.74 317.751L1052.26 333.794ZM1051.2 333.851L1014.82 321.555L1059.2 294.434L1051.2 333.851ZM1050.47 334.704L1002.27 369.909L1013.96 322.367L1050.47 334.704ZM1001.14 370.193L982.549 353.09L1012.65 323.353L1001.14 370.193ZM1013.13 321.419L986.685 347.544L1016.82 308.009L1013.13 321.419ZM1000.81 371.307L983.33 413.549L982.334 354.303L1000.81 371.307ZM1001.29 372.859L1013.61 426.091L983.545 415.737L1001.29 372.859ZM1002.18 372.122L1050.63 396.163L1014.63 425.952L1002.18 372.122ZM1060.97 453.911L1019.98 465.582L1014.97 427.856L1060.97 453.911ZM1062.04 454.693L1077.31 486.556L1021.25 466.306L1062.04 454.693ZM1078.52 486.686L1063.2 454.732L1112.09 461.97L1078.52 486.686ZM1113.86 460.601L1110.87 417.596L1154.68 427.168L1113.86 460.601ZM1154.51 428.653L1136.69 469.497L1114.46 461.459L1154.51 428.653ZM1156.21 427.332L1171.34 423.466L1139.22 466.292L1156.21 427.332ZM1145.57 368.451L1155.92 329.798L1174.59 379.364L1145.57 368.451ZM1113.02 294.346L1153.78 327.126L1109.74 317.473L1113.02 294.346ZM1077.41 289.053L1105 292.847H1064.2L1077.41 289.053ZM1112.04 293.891L1108.76 317.094L1062.16 293.891H1112.04ZM1014.44 320.565L1018.44 305.992L1055.9 295.232L1014.44 320.565ZM980.033 394.881L981.522 367.586L982.213 408.685L980.033 394.881ZM1000.13 448.194L986.447 421.844L1016.22 462.578L1000.13 448.194ZM984.252 417.083L1013.85 427.278L1018.77 464.302L984.252 417.083ZM1023.23 468.131L1073.02 486.114L1042.62 481.336L1023.23 468.131ZM1113.5 462.223L1135.3 470.105L1081.02 486.136L1113.5 462.223Z" fill="#E9E4C1"/>
</svg>