<?xml version="1.0" encoding="utf-8"?>
<!-- Generator: Adobe Illustrator 23.0.1, SVG Export Plug-In . SVG Version: 6.00 Build 0)  -->
<svg version="1.1" id="Layer_1" xmlns="http://www.w3.org/2000/svg" xmlns:xlink="http://www.w3.org/1999/xlink" x="0px" y="0px"
	 viewBox="0 0 1080 1080" style="enable-background:new 0 0 1080 1080;" xml:space="preserve">
<style type="text/css">
	.st0{fill:#FFFFFF;}
	.st1{fill:url(#SVGID_1_);}
	.st2{fill:url(#SVGID_2_);}
	.st3{fill:url(#SVGID_3_);}
	.st4{fill:none;stroke:#F8FFFF;stroke-miterlimit:10;}
	.st5{enable-background:new    ;}
	.st6{clip-path:url(#SVGID_5_);}
	.st7{fill:#FAFEFF;}
	.st8{clip-path:url(#SVGID_7_);}
	.st9{clip-path:url(#SVGID_11_);}
	.st10{fill:none;stroke:#F2F9F9;stroke-miterlimit:10;}
	.st11{fill:#F2F9F9;}
	.st12{clip-path:url(#SVGID_15_);}
	.st13{fill:#F8FFFD;}
	.st14{fill:#FDFDFF;}
	.st15{fill:#FAFAFF;}
	.st16{fill:#F7F8F9;}
	.st17{clip-path:url(#SVGID_17_);}
	.st18{fill:#FAFFFF;}
	.st19{clip-path:url(#SVGID_19_);}
</style>
<rect class="st0" width="1080" height="1080"/>
<g>
	
		<linearGradient id="SVGID_1_" gradientUnits="userSpaceOnUse" x1="594.4796" y1="672.572" x2="596.3792" y2="528.2025" gradientTransform="matrix(1.01 1.951289e-02 1.951289e-02 1.0381 -31.5861 -61.6316)">
		<stop  offset="0" style="stop-color:#DA1C5C"/>
		<stop  offset="1" style="stop-color:#FE893E"/>
	</linearGradient>
	<polygon class="st1" points="419.7,574.7 748.8,404.4 743.4,585 414.3,755.3 	"/>
	
		<linearGradient id="SVGID_2_" gradientUnits="userSpaceOnUse" x1="520.1097" y1="268.0208" x2="378.2182" y2="625.5881" gradientTransform="matrix(1.0004 -0.1047 0.1401 1.033 8.0938 55.2396)">
		<stop  offset="0" style="stop-color:#009CD4"/>
		<stop  offset="0.9947" style="stop-color:#67E9E6"/>
	</linearGradient>
	<polygon class="st2" points="419.7,574.7 300.9,495 629.9,324.7 748.8,404.4 	"/>
	
		<linearGradient id="SVGID_3_" gradientUnits="userSpaceOnUse" x1="375.7723" y1="574.1551" x2="370.0735" y2="722.3238" gradientTransform="matrix(1.01 1.951289e-02 1.951289e-02 1.0381 -31.5861 -61.6316)">
		<stop  offset="0" style="stop-color:#92278F"/>
		<stop  offset="1" style="stop-color:#262262"/>
	</linearGradient>
	<polygon class="st3" points="414.3,755.3 295.5,675.6 300.9,495 419.7,574.7 	"/>
</g>
<polygon class="st4" points="443.4,575.2 729.3,427.3 724.6,584.2 438.7,732.2 "/>
<g>
	<g>
		<g>
			<g class="st5">
				<defs>
					<polygon id="SVGID_4_" class="st5" points="402.7,554.7 315.2,447 493.9,423.2 581.4,530.8 					"/>
				</defs>
				<clipPath id="SVGID_5_">
					<use xlink:href="#SVGID_4_"  style="overflow:visible;"/>
				</clipPath>
				<g class="st6">
					<g>
						<g>
							<g>
								<path class="st7" d="M428.8,527.7l-43.4-32.1l5.7-3c2.4-1.3,5.3-2.1,8.3-2.5c9.6-1.3,21.6,1.7,31.6,9.1
									c13.2,9.8,13.5,20.3,3.4,25.5L428.8,527.7 M388.2,472.4c-5.9,0.8-11.3,2.4-16,4.9l-21.9,11.4c-0.7,0.4-0.5,1.3,0.4,1.9
									l80,59.2c0.7,0.5,1.8,0.9,2.6,0.8c0.2,0,0.3-0.1,0.5-0.1l21.9-11.4c11.3-5.9,15.8-15.2,12.4-25.7l-2.2,0.3L444,486.8
									C425.6,474.8,405,470.2,388.2,472.4"/>
								<g>
									<defs>
										<path id="SVGID_6_" d="M493.8,423.3l-91.4,12.2l41.6,51.3c1.6,1,3.1,2.1,4.7,3.3c10.6,7.9,16.9,15.9,19.3,23.3l89.2-11.9
											L493.8,423.3"/>
									</defs>
									<clipPath id="SVGID_7_">
										<use xlink:href="#SVGID_6_"  style="overflow:visible;"/>
									</clipPath>
									<g class="st8">
										<defs>
											<polyline id="SVGID_8_" points="557.6,501.6 465.7,513.8 402,435.4 493.9,423.2 557.6,501.6 											"/>
										</defs>
										<clipPath id="SVGID_9_">
											<use xlink:href="#SVGID_8_"  style="overflow:visible;"/>
										</clipPath>
										<g style="clip-path:url(#SVGID_9_);">
											
												<image style="overflow:visible;" width="649" height="378" xlink:href="CCB2CF30.png"  transform="matrix(0.24 0 0 0.24 402.0488 423.1552)">
											</image>
										</g>
									</g>
								</g>
								<g>
									<defs>
										<path id="SVGID_10_" d="M444,486.8l21.8,26.8l2.2-0.3c-2.4-7.4-8.7-15.4-19.3-23.3C447.1,488.9,445.6,487.8,444,486.8"/>
									</defs>
									<clipPath id="SVGID_11_">
										<use xlink:href="#SVGID_10_"  style="overflow:visible;"/>
									</clipPath>
									<g class="st9">
										<defs>
											<polyline id="SVGID_12_" points="471.8,513 465.7,513.8 443.7,486.7 449.7,485.9 471.8,513 											"/>
										</defs>
										<clipPath id="SVGID_13_">
											<use xlink:href="#SVGID_12_"  style="overflow:visible;"/>
										</clipPath>
										<g style="clip-path:url(#SVGID_13_);">
											
												<image style="overflow:visible;" width="117" height="117" xlink:href="CCB2CF31.png"  transform="matrix(0.24 0 0 0.24 443.6955 485.8778)">
											</image>
										</g>
									</g>
								</g>
							</g>
						</g>
					</g>
				</g>
			</g>
		</g>
	</g>
	<line class="st10" x1="355.6" y1="486.3" x2="618.6" y2="345"/>
	<line class="st10" x1="618.6" y1="344.5" x2="710.3" y2="405.3"/>
	<g>
		<line class="st11" x1="709.3" y1="406.3" x2="435.3" y2="549.9"/>
		<g>
			<path class="st11" d="M708.5,406.1c-36.3,19-72.5,38-108.8,57c-50.3,26.4-100.6,52.7-151,79.1c-4.7,2.5-9.5,5-14.2,7.4
				c-1.7,0.9,1,0.8,1.7,0.4c36.3-19,72.5-38,108.8-57c50.3-26.4,100.6-52.7,151-79.1c4.7-2.5,9.5-5,14.2-7.4
				C711.8,405.6,709.2,405.7,708.5,406.1L708.5,406.1z"/>
		</g>
	</g>
	<g>
		<g>
			<g class="st5">
				<defs>
					<polygon id="SVGID_14_" class="st5" points="603.7,448.6 524,394.1 624.6,346.6 704.4,401 					"/>
				</defs>
				<clipPath id="SVGID_15_">
					<use xlink:href="#SVGID_14_"  style="overflow:visible;"/>
				</clipPath>
				<g class="st12">
					<g>
						<g>
							<g>
								<path class="st13" d="M698.7,399.1l-97.3,46c-0.9,0.4-0.8,1.4,0.3,2.2c1.1,0.7,2.7,1,3.7,0.6l97.3-46
									c0.9-0.4,0.8-1.4-0.3-2.2C701.3,398.9,699.6,398.7,698.7,399.1"/>
								<path class="st0" d="M686.1,390.5l-97.3,46c-0.9,0.4-0.8,1.4,0.3,2.2c1.1,0.7,2.7,1,3.7,0.6l97.3-46
									c0.9-0.4,0.8-1.4-0.3-2.2C688.7,390.3,687,390.1,686.1,390.5"/>
								<path class="st14" d="M673.5,381.9l-50.9,24c-0.9,0.4-0.8,1.4,0.3,2.2c1.1,0.8,2.7,1,3.7,0.6l50.9-24
									c0.9-0.4,0.8-1.4-0.3-2.2C676,381.7,674.4,381.4,673.5,381.9"/>
								<path class="st7" d="M648.2,364.6l-97.3,46c-0.9,0.4-0.8,1.4,0.3,2.2c1.1,0.7,2.7,1,3.7,0.6l97.3-46
									c0.9-0.4,0.8-1.4-0.3-2.2C650.8,364.4,649.1,364.2,648.2,364.6"/>
								<path class="st15" d="M635.6,356l-50.9,24c-0.9,0.4-0.8,1.4,0.3,2.2c1.1,0.8,2.7,1,3.7,0.6l50.9-24c0.9-0.4,0.8-1.4-0.3-2.2
									C638.2,355.8,636.5,355.5,635.6,356"/>
								<path class="st16" d="M623,347.4l-50.9,24c-0.9,0.4-0.8,1.4,0.3,2.2c1.1,0.8,2.7,1,3.7,0.6l50.9-24c0.9-0.4,0.8-1.4-0.3-2.2
									C625.5,347.2,623.9,346.9,623,347.4"/>
								<path class="st0" d="M612.8,410.6l-36.5,17.3c-0.9,0.4-0.8,1.4,0.3,2.2c1.1,0.8,2.7,1,3.7,0.6l36.5-17.3
									c0.9-0.4,0.8-1.4-0.3-2.2C615.3,410.4,613.7,410.1,612.8,410.6"/>
							</g>
						</g>
					</g>
				</g>
			</g>
		</g>
	</g>
</g>
<g>
	<g>
		<g class="st5">
			<defs>
				<polygon id="SVGID_16_" class="st5" points="460.4,677.4 466.4,602.4 723.4,471.5 717.5,546.5 				"/>
			</defs>
			<clipPath id="SVGID_17_">
				<use xlink:href="#SVGID_16_"  style="overflow:visible;"/>
			</clipPath>
			<g class="st17">
				<g>
					<g>
						<g>
							<path class="st18" d="M510.2,580.8c-3.3,1.7-6.7,3.5-6.9,5.6l-2,24.6l-23.6,12l2-24.6c0.2-2.1-3.2-0.4-6.6,1.3
								c-3.4,1.7-6.8,3.5-6.9,5.6l-5.5,69.4c-0.2,2.1,3.2,0.5,6.6-1.3c3.4-1.7,6.7-3.5,6.9-5.6l2.2-27.3l23.6-12l-2.2,27.3
								c-0.2,2.1,3.2,0.4,6.6-1.3c3.4-1.7,6.8-3.5,6.9-5.7l5.5-69.3C517,577.4,513.6,579.1,510.2,580.8"/>
							<path class="st18" d="M540.3,611.6l6.6-19.1l4,13.7L540.3,611.6 M549.4,560.1c-1,0.5-2,1-2.4,2.3l-30.9,83.4
								c-0.1,0.4-0.2,0.7-0.2,0.9c-0.2,2,3.2,0.3,6.6-1.5c3.8-1.9,7.6-3.9,8.3-5.9l3.6-10.6l20.1-10.2l2.1,7.8
								c0.4,1.4,4.1-0.4,8-2.4c3.4-1.7,6.8-3.6,7-5.5c0-0.2,0-0.5-0.1-0.7L551.7,560C551.4,559.2,550.4,559.6,549.4,560.1"/>
							<path class="st18" d="M606.6,531.2c-16.5,8.4-29.8,30.5-31.5,51.9c-1.7,21.4,9,31.3,25.5,22.9c7.4-3.8,13.1-8.7,18.6-16.1
								c0.4-0.5,0.6-1.3,0.7-2.2c0.2-2.2-0.4-5-1-7c-1-3.4-2.4-5.2-3.6-4.6c-0.2,0.1-0.4,0.3-0.6,0.5c-3.8,4.9-8.3,8.9-12.5,11.1
								c-7.4,3.8-13.4-0.7-12.5-12.1c0.9-11.4,8.1-22.6,15.6-26.4c4.2-2.1,8.5-2.7,11.7-1.2c0.2,0.1,0.3,0.1,0.5,0
								c1.3-0.7,3.2-5,4.7-9.2c0.9-2.6,2-6.3,2.2-8.4c0.1-0.8,0-1.4-0.4-1.5C619.4,526.5,613.9,527.4,606.6,531.2"/>
							<path class="st18" d="M669.6,499.6c-4.1,2.1-8.1,4.1-8.9,6l-17,34l2-25.7c0.2-2.2-3.2-0.4-6.6,1.3c-3.4,1.7-6.8,3.4-6.9,5.6
								l-5.5,69.4c-0.2,2.2,3.2,0.5,6.6-1.3c3.4-1.7,6.7-3.4,6.9-5.6l2.4-30l14.8,21.9c0.7,1.1,4.8-1,8.9-3.1c3.5-1.8,7-3.6,7.2-5.4
								c0-0.3-0.1-0.6-0.2-0.9l-17.7-25.8l20.5-40.7c0.2-0.5,0.3-0.9,0.4-1.2C676.4,496.1,673,497.8,669.6,499.6"/>
							<path class="st18" d="M705.1,480.9c-12.4,6.3-21.3,20-22.4,32.8c-1.1,13.9,8.5,14.4,15.2,14.6c3.8,0.2,6.9,0.4,6.7,3.5
								c-0.2,2.7-2.4,5.9-7.4,8.4c-4.4,2.2-9.3,1.3-11.5-0.3c-0.1-0.1-0.3-0.1-0.5,0c-1.2,0.6-3.2,4.4-5.1,8.1
								c-1.5,3.1-3,6.3-3.1,7.9c0,0.4,0,0.7,0.2,0.9c3.7,4.3,11.1,4.5,18.6,0.6c12.2-6.2,22.4-20.4,23.4-33.2
								c1.2-15.2-9-15.6-15.7-15.8c-3.5-0.2-6.3-0.2-6.1-2.8c0.2-2.5,2.1-5.1,6.3-7.3c3.7-1.9,7.7-2,9.8-0.8
								c0.2,0.1,0.5,0.1,0.8-0.1c1.5-0.8,3.6-4.9,5.4-8.9c1.3-2.9,2.6-6.2,2.7-7.9c0-0.5,0-1-0.2-1.1
								C718.7,477.2,712.4,477.2,705.1,480.9"/>
						</g>
					</g>
				</g>
			</g>
		</g>
	</g>
</g>
<g>
	<g>
		<g class="st5">
			<defs>
				<polygon id="SVGID_18_" class="st5" points="316.8,632.6 316,573.2 391.1,614.8 391.9,674.2 				"/>
			</defs>
			<clipPath id="SVGID_19_">
				<use xlink:href="#SVGID_18_"  style="overflow:visible;"/>
			</clipPath>
			<g class="st19">
				<g>
					<g>
						<g>
							<path class="st0" d="M332.5,585.4c-0.8-0.4-1.5-0.4-2.1,0.2L317.2,599c-1.1,1.1-1.1,4,0.1,6.5l13.6,28
								c0.6,1.2,1.3,2.1,2.1,2.5c0.8,0.4,1.5,0.4,2.1-0.2c1.1-1.1,1.1-4-0.1-6.5l-11.5-23.6l11.2-11.4c1.1-1.1,1.1-4-0.1-6.4
								C334,586.6,333.3,585.8,332.5,585.4"/>
							<path class="st0" d="M374.7,608.7c-0.8-0.4-1.5-0.4-2.1,0.2c-1.1,1.1-1.1,4,0.1,6.4l11.7,24.1l-11,11.2
								c-1.1,1.1-1.1,4,0.1,6.5c0.6,1.2,1.3,2.1,2.1,2.5c0.8,0.4,1.5,0.4,2.1-0.2l13-13.2c0.5-0.5,0.8-1.5,0.8-2.7
								c0-1.2-0.3-2.5-0.9-3.7l-13.8-28.4C376.2,610,375.4,609.1,374.7,608.7"/>
							<path class="st0" d="M360.1,597.7c-1.2-0.6-2.2-0.2-2.7,1.3L345,641.9c-0.6,2,0.2,5.1,1.7,6.8c0.4,0.4,0.7,0.7,1.1,1
								c1.2,0.6,2.2,0.2,2.7-1.3l12.5-42.9c0.6-2-0.2-5.1-1.7-6.8C360.9,598.2,360.5,597.9,360.1,597.7"/>
						</g>
					</g>
				</g>
			</g>
		</g>
	</g>
</g>
</svg>
